<mxfile host="Electron" agent="Mozilla/5.0 (Windows NT 10.0; Win64; x64) AppleWebKit/537.36 (KHTML, like Gecko) draw.io/27.0.9 Chrome/134.0.6998.205 Electron/35.4.0 Safari/537.36" version="27.0.9">
  <diagram name="Page-1" id="Lf4-xlnRPHvpIA8p7CIm">
    <mxGraphModel dx="1751" dy="663" grid="1" gridSize="10" guides="1" tooltips="1" connect="1" arrows="1" fold="1" page="1" pageScale="1" pageWidth="850" pageHeight="1100" math="0" shadow="0">
      <root>
        <mxCell id="0" />
        <mxCell id="1" parent="0" />
        <mxCell id="Z_-ggYk-Yy6M99J9T5Hy-8" value="Database" style="whiteSpace=wrap;strokeWidth=2" vertex="1" parent="1">
          <mxGeometry x="40" y="20.000000000000057" width="120" height="60" as="geometry" />
        </mxCell>
        <mxCell id="Z_-ggYk-Yy6M99J9T5Hy-10" value="The source of Windows system &#xa;files" style="whiteSpace=wrap;strokeWidth=3" vertex="1" parent="1">
          <mxGeometry x="683.5416666666667" y="160.00000000000006" width="120" height="60" as="geometry" />
        </mxCell>
        <mxCell id="Z_-ggYk-Yy6M99J9T5Hy-11" value="" style="edgeStyle=none;strokeWidth=4;rounded=0;" edge="1" parent="1" target="Z_-ggYk-Yy6M99J9T5Hy-10">
          <mxGeometry width="100" height="100" relative="1" as="geometry">
            <mxPoint x="-180" y="190" as="sourcePoint" />
            <mxPoint x="243.54166666666677" y="140.00000000000006" as="targetPoint" />
          </mxGeometry>
        </mxCell>
        <mxCell id="Z_-ggYk-Yy6M99J9T5Hy-12" value="" style="edgeStyle=none;exitX=0.5;exitY=1;strokeWidth=3;rounded=0;" edge="1" parent="1" source="Z_-ggYk-Yy6M99J9T5Hy-8">
          <mxGeometry width="100" height="100" relative="1" as="geometry">
            <mxPoint x="100" y="100.00000000000006" as="sourcePoint" />
            <mxPoint x="160" y="190.00000000000006" as="targetPoint" />
          </mxGeometry>
        </mxCell>
        <mxCell id="Z_-ggYk-Yy6M99J9T5Hy-14" value="" style="edgeStyle=none;endArrow=none;strokeWidth=2;rounded=0;" edge="1" parent="1">
          <mxGeometry width="100" height="100" relative="1" as="geometry">
            <mxPoint x="49.99999999999999" y="100.00000000000006" as="sourcePoint" />
            <mxPoint x="110" y="100.00000000000006" as="targetPoint" />
          </mxGeometry>
        </mxCell>
        <mxCell id="Z_-ggYk-Yy6M99J9T5Hy-43" value="SQLite" style="text;spacingTop=-5;fontSize=8;align=center;verticalAlign=middle;points=[]" vertex="1" parent="1">
          <mxGeometry x="20" y="90.00000000000011" width="30" height="19.999999999999886" as="geometry" />
        </mxCell>
        <mxCell id="Z_-ggYk-Yy6M99J9T5Hy-71" value="HASH" style="whiteSpace=wrap;strokeWidth=2" vertex="1" parent="1">
          <mxGeometry x="263.54166666666674" y="20" width="120" height="60" as="geometry" />
        </mxCell>
        <mxCell id="Z_-ggYk-Yy6M99J9T5Hy-73" value="" style="edgeStyle=none;exitX=0.5;exitY=1;strokeWidth=3;rounded=0;" edge="1" parent="1" source="Z_-ggYk-Yy6M99J9T5Hy-71">
          <mxGeometry width="100" height="100" relative="1" as="geometry">
            <mxPoint x="323.54166666666674" y="99.99999999999997" as="sourcePoint" />
            <mxPoint x="383.54166666666674" y="190" as="targetPoint" />
          </mxGeometry>
        </mxCell>
        <mxCell id="Z_-ggYk-Yy6M99J9T5Hy-75" value="" style="edgeStyle=none;endArrow=none;strokeWidth=2;rounded=0;" edge="1" parent="1">
          <mxGeometry width="100" height="100" relative="1" as="geometry">
            <mxPoint x="273.54166666666686" y="99.99999999999997" as="sourcePoint" />
            <mxPoint x="333.54166666666674" y="99.99999999999997" as="targetPoint" />
          </mxGeometry>
        </mxCell>
        <mxCell id="Z_-ggYk-Yy6M99J9T5Hy-76" value="" style="edgeStyle=none;endArrow=none;strokeWidth=2;rounded=0;" edge="1" parent="1">
          <mxGeometry width="100" height="100" relative="1" as="geometry">
            <mxPoint x="293.54166666666674" y="135.99999999999997" as="sourcePoint" />
            <mxPoint x="353.54166666666663" y="135.99999999999997" as="targetPoint" />
          </mxGeometry>
        </mxCell>
        <mxCell id="Z_-ggYk-Yy6M99J9T5Hy-78" value="" style="edgeStyle=none;endArrow=none;strokeWidth=2;rounded=0;" edge="1" parent="1">
          <mxGeometry width="100" height="100" relative="1" as="geometry">
            <mxPoint x="333.54166666666674" y="99.99999999999997" as="sourcePoint" />
            <mxPoint x="393.54166666666674" y="99.99999999999997" as="targetPoint" />
          </mxGeometry>
        </mxCell>
        <mxCell id="Z_-ggYk-Yy6M99J9T5Hy-104" value="SHA1" style="text;spacingTop=-5;fontSize=8;align=center;verticalAlign=middle;points=[]" vertex="1" parent="1">
          <mxGeometry x="243.54166666666683" y="90.00000000000003" width="30" height="19.999999999999886" as="geometry" />
        </mxCell>
        <mxCell id="Z_-ggYk-Yy6M99J9T5Hy-105" value="md5" style="text;spacingTop=-5;fontSize=8;align=center;verticalAlign=middle;points=[]" vertex="1" parent="1">
          <mxGeometry x="263.54166666666674" y="129.99999999999991" width="30" height="19.999999999999886" as="geometry" />
        </mxCell>
        <mxCell id="Z_-ggYk-Yy6M99J9T5Hy-126" value="SHA256" style="text;spacingTop=-5;fontSize=8;align=center;verticalAlign=middle;points=[]" vertex="1" parent="1">
          <mxGeometry x="393.12500000000006" y="90.97222222222226" width="30" height="19.999999999999886" as="geometry" />
        </mxCell>
        <mxCell id="Z_-ggYk-Yy6M99J9T5Hy-132" value="File" style="whiteSpace=wrap;strokeWidth=2" vertex="1" parent="1">
          <mxGeometry x="479.37499999999983" y="21.527777777777573" width="120" height="60" as="geometry" />
        </mxCell>
        <mxCell id="Z_-ggYk-Yy6M99J9T5Hy-133" value="Download" style="whiteSpace=wrap;strokeWidth=2" vertex="1" parent="1">
          <mxGeometry x="479.37499999999983" y="311.5277777777776" width="120" height="60" as="geometry" />
        </mxCell>
        <mxCell id="Z_-ggYk-Yy6M99J9T5Hy-134" value="" style="edgeStyle=none;exitX=0.5;exitY=1;strokeWidth=3;rounded=0;" edge="1" parent="1" source="Z_-ggYk-Yy6M99J9T5Hy-132">
          <mxGeometry width="100" height="100" relative="1" as="geometry">
            <mxPoint x="539.3749999999999" y="101.52777777777757" as="sourcePoint" />
            <mxPoint x="599.3749999999999" y="191.5277777777776" as="targetPoint" />
          </mxGeometry>
        </mxCell>
        <mxCell id="Z_-ggYk-Yy6M99J9T5Hy-135" value="" style="edgeStyle=none;exitX=0.5;exitY=0;strokeWidth=3;rounded=0;" edge="1" parent="1">
          <mxGeometry width="100" height="100" relative="1" as="geometry">
            <mxPoint x="539.375" y="311.5277777777776" as="sourcePoint" />
            <mxPoint x="599.3749999999999" y="191.5277777777776" as="targetPoint" />
          </mxGeometry>
        </mxCell>
        <mxCell id="Z_-ggYk-Yy6M99J9T5Hy-136" value="" style="edgeStyle=none;endArrow=none;strokeWidth=2;rounded=0;" edge="1" parent="1">
          <mxGeometry width="100" height="100" relative="1" as="geometry">
            <mxPoint x="489.37499999999994" y="101.52777777777757" as="sourcePoint" />
            <mxPoint x="549.3749999999999" y="101.52777777777757" as="targetPoint" />
          </mxGeometry>
        </mxCell>
        <mxCell id="Z_-ggYk-Yy6M99J9T5Hy-142" value="" style="edgeStyle=none;endArrow=none;strokeWidth=2;rounded=0;" edge="1" parent="1">
          <mxGeometry width="100" height="100" relative="1" as="geometry">
            <mxPoint x="529.3749999999999" y="211.5277777777776" as="sourcePoint" />
            <mxPoint x="589.375" y="211.5277777777776" as="targetPoint" />
          </mxGeometry>
        </mxCell>
        <mxCell id="Z_-ggYk-Yy6M99J9T5Hy-145" value="" style="edgeStyle=none;endArrow=none;strokeWidth=2;rounded=0;" edge="1" parent="1">
          <mxGeometry width="100" height="100" relative="1" as="geometry">
            <mxPoint x="560.005" y="269.9977777777776" as="sourcePoint" />
            <mxPoint x="620.0049999999999" y="269.9977777777776" as="targetPoint" />
          </mxGeometry>
        </mxCell>
        <mxCell id="Z_-ggYk-Yy6M99J9T5Hy-148" value="" style="edgeStyle=none;endArrow=none;rounded=0;" edge="1" parent="1">
          <mxGeometry width="100" height="100" relative="1" as="geometry">
            <mxPoint x="519.3749999999998" y="121.52777777777746" as="sourcePoint" />
            <mxPoint x="539.375" y="101.52777777777757" as="targetPoint" />
          </mxGeometry>
        </mxCell>
        <mxCell id="Z_-ggYk-Yy6M99J9T5Hy-149" value="" style="edgeStyle=none;endArrow=none;rounded=0;" edge="1" parent="1">
          <mxGeometry width="100" height="100" relative="1" as="geometry">
            <mxPoint x="489.37499999999994" y="121.52777777777746" as="sourcePoint" />
            <mxPoint x="509.3749999999998" y="101.52777777777757" as="targetPoint" />
          </mxGeometry>
        </mxCell>
        <mxCell id="Z_-ggYk-Yy6M99J9T5Hy-165" value="File Properties" style="text;spacingTop=-5;fontSize=8;align=center;verticalAlign=middle;points=[]" vertex="1" parent="1">
          <mxGeometry x="459.37" y="90" width="30" height="21.53" as="geometry" />
        </mxCell>
        <mxCell id="Z_-ggYk-Yy6M99J9T5Hy-168" value="HTTP" style="text;spacingTop=-5;fontSize=8;align=center;verticalAlign=middle;points=[]" vertex="1" parent="1">
          <mxGeometry x="499.3749999999998" y="201.52777777777783" width="30" height="19.999999999999886" as="geometry" />
        </mxCell>
        <mxCell id="Z_-ggYk-Yy6M99J9T5Hy-171" value="windows file &#xa;properties" style="text;spacingTop=-5;fontSize=6;align=center;verticalAlign=middle;points=[]" vertex="1" parent="1">
          <mxGeometry x="474.37499999999994" y="121.52777777777752" width="30" height="19.999999999999886" as="geometry" />
        </mxCell>
        <mxCell id="Z_-ggYk-Yy6M99J9T5Hy-172" value="File datetime" style="text;spacingTop=-5;fontSize=6;align=center;verticalAlign=middle;points=[]" vertex="1" parent="1">
          <mxGeometry x="509.3749999999998" y="121.52777777777754" width="30" height="19.999999999999886" as="geometry" />
        </mxCell>
        <mxCell id="Z_-ggYk-Yy6M99J9T5Hy-190" value="magnet" style="text;spacingTop=-5;fontSize=8;align=center;verticalAlign=middle;points=[]" vertex="1" parent="1">
          <mxGeometry x="609.9983333333332" y="250.00000000000006" width="30" height="19.999999999999886" as="geometry" />
        </mxCell>
        <mxCell id="Z_-ggYk-Yy6M99J9T5Hy-193" value="ISO" style="whiteSpace=wrap;strokeWidth=2" vertex="1" parent="1">
          <mxGeometry x="262.5049999999998" y="311.5277777777776" width="120" height="60" as="geometry" />
        </mxCell>
        <mxCell id="Z_-ggYk-Yy6M99J9T5Hy-194" value="" style="edgeStyle=none;exitX=0.5;exitY=0;strokeWidth=3;rounded=0;" edge="1" parent="1">
          <mxGeometry width="100" height="100" relative="1" as="geometry">
            <mxPoint x="322.505" y="311.5277777777776" as="sourcePoint" />
            <mxPoint x="382.5049999999999" y="191.5277777777776" as="targetPoint" />
          </mxGeometry>
        </mxCell>
        <mxCell id="Z_-ggYk-Yy6M99J9T5Hy-195" value="" style="edgeStyle=none;endArrow=none;strokeWidth=2;rounded=0;" edge="1" parent="1">
          <mxGeometry width="100" height="100" relative="1" as="geometry">
            <mxPoint x="312.5049999999999" y="211.5277777777776" as="sourcePoint" />
            <mxPoint x="372.505" y="211.5277777777776" as="targetPoint" />
          </mxGeometry>
        </mxCell>
        <mxCell id="Z_-ggYk-Yy6M99J9T5Hy-196" value="" style="edgeStyle=none;endArrow=none;strokeWidth=2;rounded=0;" edge="1" parent="1">
          <mxGeometry width="100" height="100" relative="1" as="geometry">
            <mxPoint x="343.135" y="269.9977777777776" as="sourcePoint" />
            <mxPoint x="403.1349999999999" y="269.9977777777776" as="targetPoint" />
          </mxGeometry>
        </mxCell>
        <mxCell id="Z_-ggYk-Yy6M99J9T5Hy-197" value="mount &amp; umount" style="text;spacingTop=-5;fontSize=8;align=center;verticalAlign=middle;points=[]" vertex="1" parent="1">
          <mxGeometry x="271.59499999999974" y="201.52777777777783" width="30" height="19.999999999999886" as="geometry" />
        </mxCell>
        <mxCell id="Z_-ggYk-Yy6M99J9T5Hy-198" value="bootsect" style="text;spacingTop=-5;fontSize=8;align=center;verticalAlign=middle;points=[]" vertex="1" parent="1">
          <mxGeometry x="393.1283333333332" y="250.00000000000006" width="30" height="19.999999999999886" as="geometry" />
        </mxCell>
        <mxCell id="Z_-ggYk-Yy6M99J9T5Hy-199" value="" style="edgeStyle=none;endArrow=none;strokeWidth=2;rounded=0;" edge="1" parent="1">
          <mxGeometry width="100" height="100" relative="1" as="geometry">
            <mxPoint x="296.9949999999999" y="239.9977777777776" as="sourcePoint" />
            <mxPoint x="356.995" y="239.9977777777776" as="targetPoint" />
          </mxGeometry>
        </mxCell>
        <mxCell id="Z_-ggYk-Yy6M99J9T5Hy-200" value="Volume Label" style="text;spacingTop=-5;fontSize=8;align=center;verticalAlign=middle;points=[]" vertex="1" parent="1">
          <mxGeometry x="256.08499999999975" y="229.99777777777783" width="30" height="19.999999999999886" as="geometry" />
        </mxCell>
        <mxCell id="Z_-ggYk-Yy6M99J9T5Hy-201" value="" style="edgeStyle=none;endArrow=none;strokeWidth=2;rounded=0;" edge="1" parent="1">
          <mxGeometry width="100" height="100" relative="1" as="geometry">
            <mxPoint x="567.0049999999999" y="129.65777777777757" as="sourcePoint" />
            <mxPoint x="627.0049999999999" y="129.65777777777757" as="targetPoint" />
          </mxGeometry>
        </mxCell>
        <mxCell id="Z_-ggYk-Yy6M99J9T5Hy-202" value="File Signature" style="text;spacingTop=-5;fontSize=8;align=center;verticalAlign=middle;points=[]" vertex="1" parent="1">
          <mxGeometry x="630" y="110" width="30" height="21.53" as="geometry" />
        </mxCell>
        <mxCell id="Z_-ggYk-Yy6M99J9T5Hy-203" value="VM" style="whiteSpace=wrap;strokeWidth=2" vertex="1" parent="1">
          <mxGeometry x="38.42499999999981" y="311.5277777777776" width="120" height="60" as="geometry" />
        </mxCell>
        <mxCell id="Z_-ggYk-Yy6M99J9T5Hy-204" value="" style="edgeStyle=none;exitX=0.5;exitY=0;strokeWidth=3;rounded=0;" edge="1" parent="1">
          <mxGeometry width="100" height="100" relative="1" as="geometry">
            <mxPoint x="98.42499999999998" y="311.5277777777776" as="sourcePoint" />
            <mxPoint x="158.42499999999987" y="191.5277777777776" as="targetPoint" />
          </mxGeometry>
        </mxCell>
        <mxCell id="Z_-ggYk-Yy6M99J9T5Hy-205" value="" style="edgeStyle=none;endArrow=none;strokeWidth=2;rounded=0;" edge="1" parent="1">
          <mxGeometry width="100" height="100" relative="1" as="geometry">
            <mxPoint x="88.42499999999987" y="211.5277777777776" as="sourcePoint" />
            <mxPoint x="148.42499999999998" y="211.5277777777776" as="targetPoint" />
          </mxGeometry>
        </mxCell>
        <mxCell id="Z_-ggYk-Yy6M99J9T5Hy-206" value="" style="edgeStyle=none;endArrow=none;strokeWidth=2;rounded=0;" edge="1" parent="1">
          <mxGeometry width="100" height="100" relative="1" as="geometry">
            <mxPoint x="119.05499999999998" y="269.9977777777776" as="sourcePoint" />
            <mxPoint x="179.05499999999986" y="269.9977777777776" as="targetPoint" />
          </mxGeometry>
        </mxCell>
        <mxCell id="Z_-ggYk-Yy6M99J9T5Hy-207" value="Virtual Machine File Analysis" style="text;spacingTop=-5;fontSize=8;align=center;verticalAlign=middle;points=[]" vertex="1" parent="1">
          <mxGeometry x="40.00499999999973" y="197.99777777777783" width="30" height="19.999999999999886" as="geometry" />
        </mxCell>
        <mxCell id="Z_-ggYk-Yy6M99J9T5Hy-208" value="Create VM" style="text;spacingTop=-5;fontSize=8;align=center;verticalAlign=middle;points=[]" vertex="1" parent="1">
          <mxGeometry x="169.0483333333332" y="250.00000000000006" width="30" height="19.999999999999886" as="geometry" />
        </mxCell>
        <mxCell id="Z_-ggYk-Yy6M99J9T5Hy-211" value="Windows Installation Options" style="whiteSpace=wrap;strokeWidth=2" vertex="1" parent="1">
          <mxGeometry x="-199.99500000000018" y="311.5277777777776" width="120" height="60" as="geometry" />
        </mxCell>
        <mxCell id="Z_-ggYk-Yy6M99J9T5Hy-212" value="" style="edgeStyle=none;exitX=0.5;exitY=0;strokeWidth=3;rounded=0;" edge="1" parent="1">
          <mxGeometry width="100" height="100" relative="1" as="geometry">
            <mxPoint x="-139.995" y="311.5277777777776" as="sourcePoint" />
            <mxPoint x="-79.99500000000012" y="191.5277777777776" as="targetPoint" />
          </mxGeometry>
        </mxCell>
      </root>
    </mxGraphModel>
  </diagram>
</mxfile>
